<?xml version="1.0" standalone="no"?>
<!DOCTYPE svg PUBLIC "-//W3C//DTD SVG 20010904//EN"
 "http://www.w3.org/TR/2001/REC-SVG-20010904/DTD/svg10.dtd">
<svg version="1.0" xmlns="http://www.w3.org/2000/svg"
 width="1024.000000pt" height="1024.000000pt" viewBox="0 0 1024.000000 1024.000000"
 preserveAspectRatio="xMidYMid meet">
<metadata>
Created by potrace 1.11, written by Peter Selinger 2001-2013
</metadata>
<g transform="translate(0.000000,1024.000000) scale(0.100000,-0.100000)"
fill="#000000" stroke="none">
<path d="M5285 9155 c-63 -32 -118 -91 -135 -147 -11 -36 -14 -352 -14 -1838
l-1 -1795 1810 1 1810 1 40 21 c58 30 94 68 122 128 31 69 32 108 7 329 -20
174 -92 533 -116 579 -6 11 -10 22 -9 24 5 5 -31 119 -71 227 -124 337 -279
627 -486 910 -227 310 -574 659 -872 875 -41 30 -77 57 -80 60 -10 11 -262
170 -269 170 -5 0 -20 9 -35 21 -14 11 -26 17 -26 14 0 -4 -6 -3 -12 2 -64 50
-546 260 -639 278 -9 2 -46 13 -84 24 -37 12 -77 23 -89 25 -11 3 -70 16 -131
30 -109 25 -124 28 -220 42 -27 5 -52 9 -55 9 -3 1 -32 5 -65 9 -33 5 -73 10
-90 12 -16 2 -77 7 -135 10 -98 4 -108 3 -155 -21z"/>
<path d="M4070 8627 c-3 -3 -25 -8 -50 -11 -99 -14 -190 -31 -315 -61 -38 -9
-78 -18 -88 -20 -54 -12 -284 -84 -362 -115 -72 -28 -102 -39 -110 -40 -15 -4
-260 -121 -307 -148 -32 -17 -62 -32 -67 -32 -5 0 -11 -3 -13 -7 -1 -5 -23
-19 -48 -32 -65 -35 -285 -180 -355 -234 -33 -26 -71 -56 -85 -66 -14 -11 -34
-28 -45 -38 -11 -10 -52 -45 -90 -78 -156 -134 -344 -333 -501 -530 -79 -99
-215 -289 -244 -342 -8 -15 -21 -33 -28 -41 -6 -7 -12 -19 -12 -27 0 -7 -4
-15 -8 -17 -9 -3 -84 -136 -149 -263 -60 -116 -169 -384 -165 -405 0 -3 -3 -9
-8 -15 -37 -48 -147 -513 -165 -700 -4 -33 -8 -62 -10 -65 -2 -4 -7 -49 -11
-101 -3 -52 -8 -110 -10 -129 -5 -48 -4 -371 1 -445 3 -33 7 -96 10 -140 2
-44 7 -93 9 -110 3 -16 10 -70 16 -120 24 -186 118 -577 160 -670 6 -11 23
-56 39 -100 38 -105 148 -343 204 -440 7 -11 29 -51 50 -88 75 -133 266 -404
362 -512 14 -16 50 -57 78 -90 74 -84 269 -280 356 -355 40 -36 81 -72 90 -81
42 -42 302 -237 342 -258 15 -7 37 -23 50 -35 37 -34 254 -159 400 -232 326
-161 702 -281 1034 -329 22 -3 54 -7 70 -10 55 -8 99 -13 180 -20 44 -4 91 -9
105 -11 65 -10 512 -2 625 11 28 4 70 8 95 11 41 4 185 28 236 38 12 2 39 7
60 11 80 12 293 68 419 110 267 87 486 189 750 348 17 9 38 20 48 23 9 4 17
10 17 15 0 5 6 9 14 9 8 0 16 3 18 8 2 4 39 31 83 59 124 81 153 114 170 193
11 48 7 96 -12 151 -14 41 -93 124 -612 643 -328 328 -893 895 -1256 1259
l-660 662 -1 1910 c-1 1901 -1 1910 -21 1956 -25 54 -68 100 -119 124 -36 17
-153 33 -164 22z"/>
<path d="M5472 4610 l-43 -5 1081 -1075 c1469 -1461 1473 -1464 1518 -1488 22
-11 58 -23 79 -25 40 -5 133 20 133 34 0 5 6 9 14 9 16 0 209 193 280 280 15
19 47 55 70 80 22 25 61 72 86 105 24 33 50 66 57 73 7 7 13 17 13 21 0 4 8
16 18 27 64 69 283 433 328 546 11 27 22 48 27 48 4 0 7 6 7 13 0 7 13 39 30
72 16 33 30 67 30 76 0 8 4 19 9 25 14 15 136 371 147 428 2 11 17 77 33 146
17 69 32 143 36 165 3 22 10 64 16 94 15 74 15 143 -1 182 -23 58 -77 116
-135 144 l-55 27 -1867 2 c-1028 0 -1887 -1 -1911 -4z"/>
</g>
</svg>
